<svg width="24" height="24" viewBox="0 0 24 24" fill="none" xmlns="http://www.w3.org/2000/svg">
<path d="M20.7501 8.7779V6.82514C20.7501 4.996 19.2541 3.5 17.425 3.5H15.7812" stroke="#038757" stroke-width="1.5" stroke-linecap="round" stroke-linejoin="round"/>
<path d="M3.38153 8.7779V6.82095C3.38153 4.98867 4.86601 3.50314 6.69829 3.50105L8.37867 3.5" stroke="#038757" stroke-width="1.5" stroke-linecap="round" stroke-linejoin="round"/>
<path d="M20.7501 14.0144V17.5454C20.7501 19.3735 19.2541 20.8705 17.425 20.8705H15.7812" stroke="#038757" stroke-width="1.5" stroke-linecap="round" stroke-linejoin="round"/>
<path d="M3.38153 14.0144V17.5495C3.38153 19.3818 4.86601 20.8674 6.69829 20.8695L8.37867 20.8705" stroke="#038757" stroke-width="1.5" stroke-linecap="round" stroke-linejoin="round"/>
<path d="M8.5 15.7409C8.5 14.7575 9.20862 13.9198 10.1717 13.7648C11.3829 13.5699 12.6171 13.5699 13.8283 13.7648C14.7914 13.9198 15.5 14.7575 15.5 15.7409V15.9586C15.5 16.5338 15.0376 17 14.4673 17H9.53269C8.96235 17 8.5 16.5338 8.5 15.9586V15.7409Z" stroke="#038757" stroke-width="1.5"/>
<path d="M14.0417 9.05882C14.0417 10.1959 13.1276 11.1176 12 11.1176C10.8724 11.1176 9.95833 10.1959 9.95833 9.05882C9.95833 7.92177 10.8724 7 12 7C13.1276 7 14.0417 7.92177 14.0417 9.05882Z" stroke="#038757" stroke-width="1.5"/>
</svg>
