<svg width="40" height="40" viewBox="0 0 40 40" fill="none" xmlns="http://www.w3.org/2000/svg">
<g clip-path="url(#clip0_16410_843)">
<path d="M39.3946 24.8405C36.7234 35.5548 25.8717 42.0753 15.1562 39.4034C4.44515 36.7322 -2.07538 25.8799 0.597075 15.1663C3.26703 4.45086 14.1188 -2.07028 24.8311 0.60093C35.5459 3.27214 42.0658 14.1257 39.3946 24.8405Z" fill="#F7931A"/>
<path d="M28.8139 17.1534C29.212 14.4922 27.1858 13.0616 24.4152 12.1072L25.314 8.50228L23.1196 7.95542L22.2447 11.4654C21.6678 11.3216 21.0753 11.186 20.4865 11.0516L21.3678 7.51855L19.1747 6.97168L18.2753 10.5754C17.7978 10.4666 17.3291 10.3591 16.8741 10.246L16.8766 10.2348L13.8504 9.47914L13.2667 11.8229C13.2667 11.8229 14.8948 12.196 14.8604 12.2191C15.7491 12.441 15.9097 13.0291 15.8829 13.4953L14.8591 17.6021C14.9204 17.6178 14.9998 17.6403 15.0873 17.6753C15.0141 17.6571 14.936 17.6371 14.8554 17.6178L13.4204 23.3708C13.3117 23.6408 13.0361 24.0458 12.4148 23.892C12.4367 23.9239 10.8198 23.4939 10.8198 23.4939L9.73047 26.0058L12.586 26.7176C13.1173 26.8507 13.6379 26.9901 14.1504 27.1214L13.2423 30.7676L15.4341 31.3144L16.3335 27.707C16.9322 27.8695 17.5135 28.0195 18.0822 28.1607L17.186 31.7513L19.3803 32.2982L20.2884 28.6588C24.0302 29.367 26.844 29.0813 28.0283 25.697C28.9827 22.9721 27.9808 21.4002 26.0121 20.3752C27.4458 20.0446 28.5258 19.1015 28.8139 17.1534ZM23.8002 24.1839C23.1221 26.9089 18.5341 25.4358 17.0466 25.0664L18.2516 20.2358C19.7391 20.6071 24.509 21.3421 23.8002 24.1839ZM24.479 17.114C23.8602 19.5927 20.0416 18.3334 18.8028 18.0246L19.8953 13.6435C21.134 13.9522 25.1233 14.5284 24.479 17.114Z" fill="white"/>
</g>
<defs>
<clipPath id="clip0_16410_843">
<rect width="39.9994" height="40" fill="white"/>
</clipPath>
</defs>
</svg>
