<svg width="16" height="16" viewBox="0 0 16 16" fill="none" xmlns="http://www.w3.org/2000/svg">
<g clip-path="url(#clip0_16315_37602)">
<path fill-rule="evenodd" clip-rule="evenodd" d="M13.5715 0.866699H5.00006C4.13744 0.866699 3.43815 1.56599 3.43815 2.42861C3.43815 2.76525 3.71104 3.03814 4.04769 3.03814C4.38434 3.03814 4.65719 2.76524 4.65719 2.42861C4.65719 2.23924 4.81069 2.08574 5.00006 2.08574H13.5715C13.7609 2.08574 13.9144 2.23924 13.9144 2.42861V11C13.9144 11.1894 13.7609 11.3429 13.5715 11.3429C13.2349 11.3429 12.962 11.6158 12.962 11.9524C12.962 12.2891 13.2349 12.562 13.5715 12.562C14.4341 12.562 15.1334 11.8627 15.1334 11.0001V2.42861C15.1334 1.56599 14.4341 0.866699 13.5715 0.866699ZM4.04769 2.90481C4.31069 2.90481 4.52386 2.69161 4.52386 2.42861C4.52386 2.1656 4.73706 1.95241 5.00006 1.95241H13.5715C13.5715 1.95241 13.5715 1.95241 13.5715 1.95241H5.00006C4.73706 1.95241 4.52386 2.1656 4.52386 2.42861C4.52386 2.69161 4.31069 2.90481 4.04769 2.90481ZM13.5684 11.4763C13.4898 11.4768 13.4157 11.4963 13.3505 11.5305C13.4216 11.4966 13.4966 11.4768 13.5684 11.4763ZM13.5715 12.4286C13.5715 12.4286 13.5715 12.4286 13.5715 12.4286V12.4286Z" fill="#038757"/>
<path fill-rule="evenodd" clip-rule="evenodd" d="M12.0858 13.5715V5.47621C12.0858 4.6136 11.3865 3.91431 10.5238 3.91431H2.42861C1.56599 3.91431 0.866699 4.6136 0.866699 5.47621V13.5715C0.866699 14.4341 1.56599 15.1334 2.42861 15.1334H10.5238C11.3865 15.1334 12.0858 14.4341 12.0858 13.5715ZM10.8667 13.5715C10.8667 13.7609 10.7132 13.9144 10.5238 13.9144H2.42861C2.23924 13.9144 2.08574 13.7609 2.08574 13.5715V5.47621C2.08574 5.28685 2.23924 5.13335 2.42861 5.13335H10.5238C10.7132 5.13335 10.8667 5.28685 10.8667 5.47621V13.5715ZM2.42861 15H10.5238C10.5238 15 10.5239 15 10.5238 15H2.42861ZM1.95237 13.5715V5.47621C1.95237 5.21321 2.16557 5.00001 2.42857 5.00001H10.5238C10.5238 5.00001 10.5238 5.00001 10.5238 5.00001H2.42857C2.16557 5.00001 1.95237 5.21321 1.95237 5.47621V13.5715Z" fill="#038757"/>
</g>
<defs>
<clipPath id="clip0_16315_37602">
<rect width="16" height="16" fill="white"/>
</clipPath>
</defs>
</svg>
