<svg width="24" height="25" viewBox="0 0 24 25" fill="none" xmlns="http://www.w3.org/2000/svg">
<path d="M5.8 2.30002V4.50002C5.80236 4.61699 5.76362 4.73109 5.69054 4.82245C5.61745 4.91381 5.51464 4.97664 5.4 5.00002H3.8C3.58783 5.00002 3.38434 5.0843 3.23431 5.23433C3.08429 5.38436 3 5.58784 3 5.80002V22.7C3.02173 22.9048 3.11299 23.0959 3.25858 23.2414C3.40416 23.387 3.59526 23.4783 3.8 23.5H16.1C16.2061 23.5 16.3078 23.4579 16.3828 23.3829C16.4579 23.3078 16.5 23.2061 16.5 23.1C16.5 22.9939 16.4579 22.8922 16.3828 22.8172C16.3078 22.7422 16.2061 22.7 16.1 22.7H4.3C4.16739 22.7 4.04021 22.6473 3.94645 22.5536C3.85268 22.4598 3.8 22.3326 3.8 22.2V6.20002C3.82338 6.08538 3.88621 5.98257 3.97757 5.90948C4.06893 5.83639 4.18303 5.79766 4.3 5.80002H5.4C5.50609 5.80002 5.60783 5.84216 5.68284 5.91717C5.75786 5.99219 5.8 6.09393 5.8 6.20002V19.8C5.79911 19.914 5.8226 20.0269 5.8689 20.1312C5.91521 20.2354 5.98326 20.3285 6.06848 20.4042C6.15371 20.48 6.25415 20.5366 6.36307 20.5704C6.47199 20.6042 6.58686 20.6143 6.7 20.6H20.2C20.4047 20.5783 20.5958 20.487 20.7414 20.3414C20.887 20.1959 20.9783 20.0048 21 19.8V5.30002V5.10002L17.3 1.50002H6.7C6.47766 1.49864 6.26268 1.57962 6.0965 1.72733C5.93032 1.87505 5.8247 2.07905 5.8 2.30002ZM17.5 2.90002L19.6 5.00002H18C17.8674 5.00002 17.7402 4.94734 17.6464 4.85357C17.5527 4.7598 17.5 4.63263 17.5 4.50002V2.90002ZM7.1 2.30002H16.3C16.4146 2.32339 16.5174 2.38623 16.5905 2.47759C16.6636 2.56895 16.7024 2.68304 16.7 2.80002V4.90002C16.6986 5.12236 16.7796 5.33733 16.9273 5.50352C17.075 5.6697 17.279 5.77532 17.5 5.80002H19.7C19.817 5.79766 19.9311 5.83639 20.0224 5.90948C20.1138 5.98257 20.1766 6.08538 20.2 6.20002V19.4C20.1766 19.5147 20.1138 19.6175 20.0224 19.6906C19.9311 19.7636 19.817 19.8024 19.7 19.8H7.1C6.98303 19.8024 6.86893 19.7636 6.77757 19.6906C6.68621 19.6175 6.62338 19.5147 6.6 19.4V2.80002C6.6 2.66741 6.65268 2.54023 6.74645 2.44646C6.84021 2.3527 6.96739 2.30002 7.1 2.30002Z" fill="#414347"/>
<path d="M16.9 9.19995H9.59999C9.39999 9.19995 9.19999 9.49995 9.19999 9.69995C9.19763 9.81692 9.23637 9.93102 9.30946 10.0224C9.38254 10.1137 9.48535 10.1766 9.59999 10.2H16.9C17.0146 10.1766 17.1174 10.1137 17.1905 10.0224C17.2636 9.93102 17.3024 9.81692 17.3 9.69995C17.3 9.49995 17.1 9.19995 16.9 9.19995Z" fill="#2C9F78"/>
<path d="M16.8 12.1H9.5C9.36739 12.1 9.24021 12.1527 9.14645 12.2464C9.05268 12.3402 9 12.4674 9 12.6C9 12.7326 9.05268 12.8598 9.14645 12.9535C9.24021 13.0473 9.36739 13.1 9.5 13.1H16.8C16.9326 13.1 17.0598 13.0473 17.1536 12.9535C17.2473 12.8598 17.3 12.7326 17.3 12.6C17.3 12.4674 17.2473 12.3402 17.1536 12.2464C17.0598 12.1527 16.9326 12.1 16.8 12.1Z" fill="#2C9F78"/>
</svg>
