<svg width="32" height="30" viewBox="0 0 32 30" fill="none" xmlns="http://www.w3.org/2000/svg">
<path d="M22.9053 13.8333C22.9053 13.281 23.3577 12.8333 23.9158 12.8333H24.5895C25.1476 12.8333 25.6 13.281 25.6 13.8333C25.6 14.3856 25.1476 14.8333 24.5895 14.8333H23.9158C23.3577 14.8333 22.9053 14.3856 22.9053 13.8333Z" fill="#163FD2"/>
<path d="M10.4421 15.8333C10.4421 15.281 9.98968 14.8333 9.43158 14.8333C8.87348 14.8333 8.42105 15.281 8.42105 15.8333V22.0858L6.10402 19.7929C5.70939 19.4024 5.06956 19.4024 4.67492 19.7929C4.28029 20.1834 4.28029 20.8166 4.67492 21.2071L8.71703 25.2071C9.11166 25.5976 9.75149 25.5976 10.1461 25.2071L14.1882 21.2071C14.5829 20.8166 14.5829 20.1834 14.1882 19.7929C13.7936 19.4024 13.1538 19.4024 12.7591 19.7929L10.4421 22.0858V15.8333Z" fill="#163FD2"/>
<path fill-rule="evenodd" clip-rule="evenodd" d="M1.68421 8.16667V14.8423C0.62246 16.3524 0 18.1876 0 20.1667C0 25.3213 4.22266 29.5 9.43158 29.5C12.1703 29.5 14.6364 28.3448 16.3595 26.5H24.2526C28.5314 26.5 32 23.0675 32 18.8333V8.16667C32 3.93248 28.5314 0.5 24.2526 0.5H9.43158C5.15283 0.5 1.68421 3.93248 1.68421 8.16667ZM29.9789 8.83333V8.16667C29.9789 5.03705 27.4152 2.5 24.2526 2.5H9.43158C6.26902 2.5 3.70526 5.03705 3.70526 8.16667V12.7499C5.29296 11.5476 7.27798 10.8333 9.43158 10.8333C14.6405 10.8333 18.8632 15.012 18.8632 20.1667C18.8632 21.7308 18.4743 23.2051 17.7872 24.5H24.2526C27.4152 24.5 29.9789 21.9629 29.9789 18.8333H24.2526C21.4621 18.8333 19.2 16.5948 19.2 13.8333C19.2 11.0719 21.4621 8.83333 24.2526 8.83333H29.9789ZM29.9789 10.8333H24.2526C22.5783 10.8333 21.2211 12.1765 21.2211 13.8333C21.2211 15.4902 22.5783 16.8333 24.2526 16.8333H29.9789V10.8333ZM9.43158 27.5C13.5243 27.5 16.8421 24.2168 16.8421 20.1667C16.8421 16.1166 13.5243 12.8333 9.43158 12.8333C5.33886 12.8333 2.02105 16.1166 2.02105 20.1667C2.02105 24.2168 5.33886 27.5 9.43158 27.5Z" fill="#163FD2"/>
</svg>
