<svg width="32" height="32" viewBox="0 0 32 32" fill="none" xmlns="http://www.w3.org/2000/svg">
<path fill-rule="evenodd" clip-rule="evenodd" d="M3.69488 10.4065C3.69488 6.58067 6.829 3.47922 10.6951 3.47922H22.9997C26.8658 3.47922 29.9999 6.58067 29.9999 10.4065V18.5813C29.9999 22.4071 26.8658 25.5086 22.9997 25.5086H17.7882C18.2302 24.6782 18.5495 23.7739 18.7221 22.8193H19.9428C23.1637 22.8193 25.0848 19.267 23.2982 16.6149C22.5503 15.5047 21.2911 14.8379 19.9428 14.8379H16.3749C14.6508 12.9865 12.1798 11.8267 9.43504 11.8267C7.27534 11.8267 5.28511 12.5447 3.69488 13.7528V10.4065ZM17.7877 16.8171C18.4312 18.0257 18.8147 19.391 18.8645 20.84H19.9428C21.5662 20.84 22.5346 19.0495 21.634 17.7128C21.257 17.1532 20.6224 16.8171 19.9428 16.8171H17.7877ZM3.68846 16.4946H3.69488V16.4869C5.05853 14.8497 7.12361 13.8059 9.43504 13.8059C13.5413 13.8059 16.87 17.0999 16.87 21.1633C16.87 25.2267 13.5413 28.5208 9.43504 28.5208C5.32882 28.5208 2.00008 25.2267 2.00008 21.1633C2.00008 19.3909 2.63345 17.7648 3.68846 16.4946ZM1.6948 15.8229V10.4065C1.6948 5.48758 5.72439 1.5 10.6951 1.5H22.9997C27.9704 1.5 32 5.48757 32 10.4065V18.5813C32 23.5002 27.9704 27.4878 22.9997 27.4878H16.3758C14.6517 29.3398 12.1803 30.5 9.43504 30.5C4.22421 30.5 0 26.3198 0 21.1633C0 19.1774 0.626587 17.3362 1.6948 15.8229ZM17.5222 11.181C18.6508 11.181 19.5657 10.2757 19.5657 9.15882C19.5657 8.04198 18.6508 7.13661 17.5222 7.13661C16.3936 7.13661 15.4787 8.04198 15.4787 9.15882C15.4787 10.2757 16.3936 11.181 17.5222 11.181ZM17.5222 13.1602C19.7554 13.1602 21.5658 11.3687 21.5658 9.15882C21.5658 6.94889 19.7554 5.15739 17.5222 5.15739C15.289 5.15739 13.4786 6.94889 13.4786 9.15882C13.4786 11.3687 15.289 13.1602 17.5222 13.1602Z" fill="#9E9E9E"/>
<path fill-rule="evenodd" clip-rule="evenodd" d="M12.1887 26.2746C11.8952 26.5669 11.4203 26.5659 11.128 26.2724C10.8358 25.9789 10.8367 25.504 11.1302 25.2117L11.9582 24.3872L5.07765 24.3872C4.66343 24.3872 4.32765 24.0514 4.32765 23.6372C4.32765 23.223 4.66343 22.8872 5.07765 22.8872L11.9582 22.8872L11.1302 22.0626C10.8367 21.7703 10.8358 21.2954 11.128 21.0019C11.4203 20.7084 11.8952 20.7075 12.1887 20.9997L14.3034 23.1057C14.4447 23.2465 14.5241 23.4377 14.5241 23.6372C14.5241 23.7049 14.515 23.7717 14.4973 23.8359C14.4847 23.8821 14.4677 23.9265 14.4469 23.9686C14.4108 24.042 14.3625 24.1097 14.3034 24.1686L12.1887 26.2746ZM6.66306 21.9699C6.95656 22.2622 7.43143 22.2612 7.72372 21.9677C8.01601 21.6742 8.01504 21.1993 7.72154 20.9071L6.89361 20.0825L13.7741 20.0825C14.1883 20.0825 14.5241 19.7467 14.5241 19.3325C14.5241 18.9183 14.1883 18.5825 13.7741 18.5825L6.89352 18.5825L7.72154 17.7579C8.01504 17.4656 8.01601 16.9907 7.72372 16.6972C7.43143 16.4037 6.95656 16.4028 6.66306 16.6951L4.5484 18.8011C4.40708 18.9418 4.32764 19.133 4.32764 19.3325C4.32764 19.4002 4.3368 19.467 4.35445 19.5312C4.3671 19.5774 4.38405 19.6218 4.40484 19.6639C4.44102 19.7373 4.4893 19.805 4.5484 19.8639L6.66306 21.9699Z" fill="#9E9E9E"/>
</svg>
