<svg width="24" height="24" viewBox="0 0 24 24" fill="none" xmlns="http://www.w3.org/2000/svg">
<path fill-rule="evenodd" clip-rule="evenodd" d="M12.3184 14.019C10.062 13.7282 7.77572 14.2479 5.86689 15.4857C3.95807 16.7234 2.55075 18.5988 1.89575 20.7774C1.87457 20.8483 1.8304 20.9101 1.77021 20.953C1.71002 20.996 1.63724 21.0177 1.56335 21.0147C1.48946 21.0117 1.41867 20.9842 1.36215 20.9365C1.30563 20.8888 1.2666 20.8237 1.25122 20.7514C0.89788 19.0972 0.917495 17.385 1.30864 15.7393C1.69978 14.0937 2.45262 12.5558 3.51245 11.2375C4.57229 9.91915 5.91251 8.85348 7.43572 8.11791C8.95893 7.38235 10.6269 6.99535 12.3184 6.98503V3.31635H12.3197C12.3197 3.2547 12.3369 3.19427 12.3693 3.14183C12.4017 3.08939 12.4481 3.04701 12.5032 3.01944C12.5584 2.99186 12.6201 2.98019 12.6815 2.98571C12.7429 2.99124 12.8016 3.01375 12.8509 3.05072L17.8592 6.81771L22.8619 10.5807C22.9042 10.6111 22.9387 10.6511 22.9627 10.6973C22.9867 10.7436 22.9995 10.7949 23 10.847C23.0005 10.8991 22.9888 10.9506 22.9658 10.9973C22.9427 11.0441 22.909 11.0847 22.8673 11.116L12.8748 18.6323C12.8269 18.6755 12.7675 18.7038 12.7039 18.7139C12.6402 18.7239 12.575 18.7154 12.5161 18.6891C12.4572 18.6629 12.4072 18.6202 12.3721 18.5662C12.337 18.5121 12.3184 18.449 12.3184 18.3846V14.019Z" fill="#038757"/>
</svg>
