<svg width="24" height="24" viewBox="0 0 24 24" fill="none" xmlns="http://www.w3.org/2000/svg">
<path fill-rule="evenodd" clip-rule="evenodd" d="M16.4729 20.5569C16.5288 20.555 16.5818 20.5312 16.6202 20.4905C16.6586 20.4498 16.6794 20.3956 16.678 20.3396L16.6643 19.7783L16.8369 19.7417C17.5586 19.5887 18.1566 18.9952 18.1566 18.2336C18.1566 18.0066 18.1023 17.786 17.9989 17.5841C17.705 17.0106 17.0812 16.6848 16.4477 16.6848C15.9374 16.6848 15.4159 16.4091 15.2289 15.9153C15.186 15.8022 15.1639 15.6822 15.1639 15.5612C15.1639 15.4403 15.1859 15.3211 15.2286 15.208C15.4152 14.7137 15.937 14.4373 16.4477 14.4373C16.7834 14.4373 17.1127 14.5498 17.3645 14.7746C17.4516 14.8525 17.5865 14.8446 17.6644 14.7575C17.7018 14.7154 17.7211 14.6602 17.7179 14.604C17.7147 14.5478 17.6893 14.4951 17.6472 14.4576C17.4145 14.2498 17.1294 14.1113 16.8238 14.0497L16.6576 14.0162L16.6424 13.3961C16.6396 13.2796 16.5421 13.1857 16.4254 13.1886C16.3975 13.1893 16.3699 13.1954 16.3444 13.2067C16.3189 13.218 16.2958 13.2342 16.2765 13.2545C16.2573 13.2747 16.2422 13.2985 16.2321 13.3245C16.222 13.3506 16.2172 13.3784 16.2179 13.4063L16.2323 14.0164L16.0597 14.0529C15.3377 14.2056 14.7391 14.7994 14.7391 15.5612C14.7391 15.7883 14.7935 16.009 14.8971 16.211C15.1911 16.784 15.8147 17.1096 16.4478 17.1096C16.9593 17.1096 17.4823 17.3871 17.6681 17.8827C17.7103 17.9949 17.732 18.1137 17.732 18.2336C17.732 18.3545 17.71 18.4738 17.6673 18.5869C17.4806 19.0813 16.9586 19.3577 16.4478 19.3577C15.9461 19.3577 15.6935 19.1732 15.3416 18.8411C15.3213 18.822 15.2975 18.807 15.2714 18.7971C15.2453 18.7872 15.2176 18.7826 15.1897 18.7834C15.1619 18.7843 15.1344 18.7906 15.109 18.802C15.0836 18.8135 15.0607 18.8298 15.0416 18.8501C15.0224 18.8704 15.0075 18.8942 14.9976 18.9203C14.9876 18.9463 14.9829 18.9741 14.9838 19.0019C14.9846 19.0298 14.9908 19.0572 15.0023 19.0827C15.0137 19.1081 15.03 19.131 15.0502 19.1502C15.3575 19.4404 15.6426 19.6658 16.0716 19.7485L16.2395 19.7809L16.2535 20.3496C16.2549 20.405 16.2778 20.4577 16.3174 20.4964C16.357 20.5351 16.4102 20.5568 16.4656 20.5568C16.468 20.5569 16.4704 20.5569 16.4729 20.5569ZM2.18705 8.16583V5.20752L2.52847 5.46865C2.97923 5.81342 3.54028 6.06474 4.07222 6.25424C4.85318 6.53253 5.68381 6.71427 6.50296 6.83572C7.45279 6.9765 8.4193 7.03929 9.37928 7.03929C10.3393 7.03929 11.3058 6.97654 12.2556 6.83576C13.0748 6.71431 13.9055 6.53258 14.6866 6.25429C15.2186 6.06469 15.7794 5.81338 16.2303 5.46865L16.5717 5.20769V8.16587C16.5717 9.01111 15.1914 9.60083 14.544 9.83158C13.7824 10.103 12.9722 10.2793 12.1732 10.3966C11.2504 10.5321 10.3116 10.5919 9.37928 10.5919C8.44696 10.5919 7.50822 10.5321 6.58554 10.3966C5.78648 10.2793 4.97621 10.103 4.21457 9.83158C3.56712 9.60074 2.18705 9.01102 2.18705 8.16583ZM10.8968 15.2258C10.7381 15.7605 10.6577 16.3154 10.6579 16.8732C10.6579 17.3355 10.7131 17.7963 10.8226 18.2454L10.8828 18.4922L10.6293 18.5077C10.2132 18.5333 9.79619 18.5468 9.37928 18.5468C8.44696 18.5468 7.50818 18.4869 6.5855 18.3513C5.78644 18.2339 4.97621 18.0575 4.21453 17.7861C3.56691 17.5552 2.18701 16.9659 2.18701 16.1204V13.1621L2.52843 13.4232C2.97936 13.7681 3.54006 14.0196 4.07218 14.2092C4.8531 14.4875 5.68372 14.6693 6.50288 14.7907C7.45274 14.9315 8.4193 14.9942 9.37924 14.9942C9.81301 14.9942 10.2469 14.9806 10.6798 14.9533L10.9834 14.9342L10.8968 15.2258ZM16.4477 11.5077C19.4065 11.5077 21.813 13.9144 21.813 16.8732C21.813 19.8317 19.4061 22.2379 16.4477 22.2379C13.4894 22.2379 11.0828 19.8315 11.0828 16.8732C11.0828 13.9146 13.489 11.5077 16.4477 11.5077Z" fill="#038757"/>
<path fill-rule="evenodd" clip-rule="evenodd" d="M21.6006 16.8731C21.6006 14.0315 19.2891 11.72 16.4477 11.72C13.6066 11.72 11.2952 14.0315 11.2952 16.8731C11.2952 19.7142 13.6066 22.0254 16.4477 22.0254C19.2892 22.0254 21.6006 19.7142 21.6006 16.8731ZM12.8886 21.7026C11.824 21.9146 10.6295 22.0254 9.37928 22.0254C7.44896 22.0254 5.63967 21.7599 4.28586 21.2774C3.1046 20.8564 2.39942 20.3083 2.39942 19.8118V17.5693C2.79818 17.8743 3.33382 18.1488 4.0009 18.3862C5.44388 18.9006 7.35415 19.184 9.37924 19.184C9.88604 19.184 10.3912 19.1653 10.8865 19.1297C11.3062 20.161 12.0049 21.0502 12.8886 21.7026ZM2.39942 16.1203C2.39942 16.6172 3.10455 17.1649 4.28586 17.5859C5.63967 18.0684 7.44896 18.3343 9.37928 18.3343C9.7947 18.3343 10.2085 18.3207 10.6163 18.2957C10.5028 17.83 10.4455 17.3524 10.4455 16.8731C10.4455 16.28 10.5323 15.7069 10.6932 15.1652C10.2558 15.1928 9.81758 15.2065 9.37928 15.2065C7.35419 15.2065 5.44392 14.9232 4.00094 14.4092C3.33386 14.1711 2.79823 13.8968 2.39946 13.5918L2.39942 16.1203ZM2.39942 12.1432V9.61437C2.79818 9.91939 3.33382 10.1939 4.0009 10.4317C5.44388 10.9457 7.35415 11.2291 9.37924 11.2291C11.4043 11.2291 13.3146 10.9457 14.7578 10.4317C15.4247 10.1939 15.9603 9.91934 16.3593 9.61437V10.8718C14.0118 10.9059 11.9859 12.2939 11.0304 14.2894C10.4812 14.3346 9.93033 14.3571 9.37924 14.3569C7.44892 14.3569 5.63963 14.091 4.28581 13.6089C3.1046 13.1878 2.39942 12.6398 2.39942 12.1432ZM2.39942 8.16578C2.39942 8.66234 3.10455 9.21038 4.28586 9.63141C5.63967 10.1139 7.44896 10.3795 9.37928 10.3795C11.31 10.3795 13.1189 10.1139 14.4727 9.63141C15.6541 9.21038 16.3593 8.66234 16.3593 8.16578V5.63734C15.9603 5.94235 15.4247 6.21686 14.7578 6.45432C13.3147 6.96872 11.4044 7.25164 9.37928 7.25164C7.35419 7.25164 5.44392 6.96868 4.00094 6.45432C3.33386 6.21686 2.79823 5.94235 2.39946 5.63734L2.39942 8.16578ZM2.39942 4.18832C2.39942 3.69177 3.10455 3.14372 4.28586 2.7227C5.63967 2.24016 7.44896 1.97466 9.37928 1.97466C11.31 1.97466 13.1189 2.24016 14.4727 2.7227C15.6541 3.14368 16.3593 3.69177 16.3593 4.18832C16.3593 4.68488 15.6542 5.23292 14.4727 5.65395C13.1189 6.13648 11.31 6.40199 9.37928 6.40199C7.44896 6.40199 5.63967 6.13648 4.28586 5.65395C3.1046 5.23292 2.39942 4.68488 2.39942 4.18832ZM22.45 16.8731C22.45 20.1827 19.7572 22.8751 16.4477 22.8751C15.5555 22.8751 14.7085 22.6793 13.9465 22.3284C12.6189 22.6861 11.0425 22.8751 9.37928 22.8751C7.35419 22.8751 5.44392 22.5917 4.00094 22.0777C2.39725 21.5062 1.5498 20.7225 1.5498 19.8118V4.18832C1.5498 3.27758 2.39725 2.49364 4.00094 1.92236C5.44388 1.40835 7.35419 1.125 9.37928 1.125C11.4044 1.125 13.3147 1.40835 14.7578 1.92232C16.3615 2.4936 17.2089 3.27754 17.2089 4.18828V10.9184C20.1604 11.2936 22.45 13.8209 22.45 16.8731Z" fill="#2C2C2C"/>
<path d="M16.8809 19.9495C17.7324 19.7689 18.369 19.0684 18.369 18.2336C18.369 17.2625 17.5071 16.4724 16.4478 16.4724C15.8569 16.4724 15.3763 16.0638 15.3763 15.5612C15.3763 15.0587 15.8568 14.6497 16.4478 14.6497C16.7429 14.6497 17.0182 14.7503 17.223 14.933C17.398 15.0893 17.6665 15.0739 17.8228 14.899C17.9791 14.724 17.9638 14.4555 17.7887 14.2992C17.53 14.0681 17.2116 13.9113 16.8657 13.8415L16.8547 13.3908C16.8491 13.1564 16.6533 12.9702 16.4201 12.9762C16.1856 12.9818 15.9998 13.1764 16.0054 13.4113L16.0157 13.8451C15.164 14.0252 14.5266 14.726 14.5266 15.5612C14.5266 16.5323 15.3887 17.322 16.4477 17.322C17.0387 17.322 17.5196 17.7312 17.5196 18.2335C17.5196 18.7363 17.0387 19.1453 16.4477 19.1453C16.045 19.1453 15.8461 19.025 15.4873 18.6866C15.3168 18.5255 15.0476 18.5335 14.8869 18.7044C14.726 18.8748 14.7336 19.1435 14.9043 19.3046C15.2115 19.5947 15.5336 19.8611 16.0313 19.9571L16.0411 20.3548C16.0467 20.5859 16.2357 20.7692 16.4656 20.7692H16.4758C16.7106 20.7638 16.896 20.5688 16.8904 20.3344L16.8809 19.9495Z" fill="white"/>
</svg>
