<svg width="24" height="24" viewBox="0 0 24 24" fill="none" xmlns="http://www.w3.org/2000/svg">
<path d="M4.8002 12.0002C4.8002 12.442 4.44202 12.8002 4.0002 12.8002C3.55837 12.8002 3.2002 12.442 3.2002 12.0002C3.2002 11.5584 3.55837 11.2002 4.0002 11.2002C4.44202 11.2002 4.8002 11.5584 4.8002 12.0002Z" stroke="white"/>
<path d="M12.8002 12.0002C12.8002 12.442 12.442 12.8002 12.0002 12.8002C11.5584 12.8002 11.2002 12.442 11.2002 12.0002C11.2002 11.5584 11.5584 11.2002 12.0002 11.2002C12.442 11.2002 12.8002 11.5584 12.8002 12.0002Z" stroke="white"/>
<path d="M20.8002 12.0002C20.8002 12.442 20.442 12.8002 20.0002 12.8002C19.5584 12.8002 19.2002 12.442 19.2002 12.0002C19.2002 11.5584 19.5584 11.2002 20.0002 11.2002C20.442 11.2002 20.8002 11.5584 20.8002 12.0002Z" stroke="white"/>
</svg>
