<svg width="24" height="27" viewBox="0 0 24 27" fill="none" xmlns="http://www.w3.org/2000/svg">
<path d="M4.89534 10.7547C4.89534 6.83086 8.07621 3.65 12 3.65C15.9238 3.65 19.1047 6.83086 19.1047 10.7547V12V14.8851C19.1047 16.0725 19.483 17.2345 20.1764 18.196C20.8265 19.0975 20.182 20.35 19.0918 20.35H4.90823C3.81797 20.35 3.17348 19.0975 3.82364 18.196C4.51703 17.2345 4.89534 16.0725 4.89534 14.8851V12V10.7547Z" stroke="#58595B" stroke-width="1.3"/>
<path d="M9.58106 3.1456L9.58106 2.40384C9.58057 1.78262 9.82059 1.18532 10.2508 0.737181C10.681 0.289038 11.268 0.0248485 11.8888 -2.39571e-07L12.1772 -2.26962e-07C12.8147 -1.99094e-07 13.4262 0.253261 13.877 0.704068C14.3278 1.15488 14.5811 1.7663 14.5811 2.40384L14.5811 3.1456C14.5817 3.29297 14.5515 3.43884 14.4924 3.57386C14.4333 3.70888 14.3467 3.83007 14.2381 3.92966C14.1294 4.02924 14.0012 4.10502 13.8616 4.15214C13.7219 4.19927 13.574 4.21668 13.4272 4.20329L10.6388 4.20329C10.3582 4.20329 10.0892 4.09185 9.89085 3.8935C9.6925 3.69514 9.58106 3.42611 9.58106 3.1456ZM13.6195 2.40384C13.6195 2.02132 13.4676 1.65446 13.1971 1.38398C12.9266 1.11349 12.5597 0.961537 12.1772 0.961537L11.8888 0.961537C11.5231 0.985965 11.1805 1.14864 10.9305 1.41652C10.6805 1.6844 10.5418 2.03741 10.5426 2.40384L10.5426 3.24175L13.6195 3.24175L13.6195 2.40384Z" fill="#58595B"/>
<mask id="path-3-inside-1_15558_3522" fill="white">
<path d="M17 20C17 21.3261 16.4732 22.5979 15.5355 23.5355C14.5979 24.4732 13.3261 25 12 25C10.6739 25 9.40215 24.4732 8.46447 23.5355C7.52678 22.5979 7 21.3261 7 20L12 20H17Z"/>
</mask>
<path d="M17 20C17 21.3261 16.4732 22.5979 15.5355 23.5355C14.5979 24.4732 13.3261 25 12 25C10.6739 25 9.40215 24.4732 8.46447 23.5355C7.52678 22.5979 7 21.3261 7 20L12 20H17Z" fill="#038C5A" stroke="#58595B" stroke-width="2.4" mask="url(#path-3-inside-1_15558_3522)"/>
</svg>
