<svg width="25" height="24" viewBox="0 0 25 24" fill="none" xmlns="http://www.w3.org/2000/svg">
<g clip-path="url(#clip0_15356_103752)">
<path d="M23.3332 15.1001H21.5332" stroke="#2C2C2C" stroke-miterlimit="10" stroke-linecap="round"/>
<path d="M23.3332 9.1001H21.5332" stroke="#2C2C2C" stroke-linecap="round" stroke-linejoin="round"/>
<path d="M21.3332 12H19.5332" stroke="#2C2C2C" stroke-linecap="round" stroke-linejoin="round"/>
<path d="M2.33325 12H8.63325L8.93325 12.7H16.1333C16.5317 12.7006 16.9199 12.8264 17.2429 13.0597C17.5659 13.293 17.8074 13.6219 17.9333 14L19.1333 18.3C19.2047 18.675 19.1673 19.0625 19.0255 19.4169C18.8838 19.7713 18.6435 20.0777 18.3333 20.3C18.027 20.51 17.6683 20.6305 17.2975 20.6482C16.9266 20.6659 16.5581 20.5799 16.2333 20.4L3.33325 13.6C3.03484 13.452 2.78336 13.224 2.60681 12.9415C2.43026 12.659 2.33556 12.3331 2.33325 12Z" fill="#038757" stroke="#2C2C2C" stroke-linecap="round" stroke-linejoin="round"/>
<path d="M2.33325 12.0002C2.34616 11.6695 2.44521 11.348 2.62061 11.0673C2.79601 10.7867 3.04166 10.5567 3.33325 10.4002L16.2333 3.60023C16.546 3.43964 16.8955 3.36433 17.2467 3.38189C17.5978 3.39945 17.9381 3.50925 18.2333 3.70023V3.70023C18.5826 3.88788 18.8603 4.18567 19.023 4.54733C19.1858 4.90899 19.2245 5.31428 19.1333 5.70023L17.9333 10.0002C17.8074 10.3783 17.5659 10.7072 17.2429 10.9405C16.9199 11.1738 16.5317 11.2996 16.1333 11.3002H8.93325L8.63325 12.0002H2.33325Z" stroke="#2C2C2C" stroke-linejoin="round"/>
</g>
<defs>
<clipPath id="clip0_15356_103752">
<rect width="24" height="24" fill="white" transform="translate(0.833252)"/>
</clipPath>
</defs>
</svg>
