<svg width="15" height="15" viewBox="0 0 15 15" fill="none" xmlns="http://www.w3.org/2000/svg">
<path d="M7.5948 0.802002C10.0844 0.802002 12.2425 2.15611 13.3991 4.16611L15.0001 2.56516V7.14937H10.4159L12.3553 5.2099C11.502 3.43263 9.71059 2.21253 7.5948 2.21253C6.19194 2.21253 4.84654 2.76981 3.85458 3.76178C2.86261 4.75375 2.30532 6.09915 2.30532 7.502C2.30532 8.90486 2.86261 10.2503 3.85458 11.2422C4.84654 12.2342 6.19194 12.7915 7.5948 12.7915C9.90101 12.7915 11.8475 11.3175 12.574 9.26516H14.055C13.2792 12.1074 10.6909 14.202 7.5948 14.202C3.89922 14.202 0.894798 11.2046 0.894798 7.502C0.894798 6.62215 1.0681 5.7509 1.40481 4.93802C1.74151 4.12514 2.23503 3.38654 2.85718 2.76439C3.47934 2.14223 4.21794 1.64872 5.03082 1.31201C5.8437 0.975303 6.71494 0.802002 7.5948 0.802002Z" fill="#038757"/>
<path d="M7.5948 0.802002C10.0844 0.802002 12.2425 2.15611 13.3991 4.16611L15.0001 2.56516V7.14937H10.4159L12.3553 5.2099C11.502 3.43263 9.71059 2.21253 7.5948 2.21253C6.19194 2.21253 4.84654 2.76981 3.85458 3.76178C2.86261 4.75375 2.30532 6.09915 2.30532 7.502C2.30532 8.90486 2.86261 10.2503 3.85458 11.2422C4.84654 12.2342 6.19194 12.7915 7.5948 12.7915C9.90101 12.7915 11.8475 11.3175 12.574 9.26516H14.055C13.2792 12.1074 10.6909 14.202 7.5948 14.202C3.89922 14.202 0.894798 11.2046 0.894798 7.502C0.894798 6.62215 1.0681 5.7509 1.40481 4.93802C1.74151 4.12514 2.23503 3.38654 2.85718 2.76439C3.47934 2.14223 4.21794 1.64872 5.03082 1.31201C5.8437 0.975303 6.71494 0.802002 7.5948 0.802002Z" fill="#038757"/>
</svg>
