<svg width="24" height="24" viewBox="0 0 24 24" fill="none" xmlns="http://www.w3.org/2000/svg">
<path d="M18.5625 4.5H15.125V3.875C15.125 2.83945 14.2855 2 13.25 2H10.75C9.71445 2 8.875 2.83945 8.875 3.875V4.5H5.4375C4.57457 4.5 3.875 5.19957 3.875 6.0625V7.3125C3.875 7.6577 4.1548 7.9375 4.5 7.9375H19.5C19.8452 7.9375 20.125 7.6577 20.125 7.3125V6.0625C20.125 5.19957 19.4254 4.5 18.5625 4.5ZM10.125 3.875C10.125 3.53047 10.4055 3.25 10.75 3.25H13.25C13.5945 3.25 13.875 3.53047 13.875 3.875V4.5H10.125V3.875Z" fill="#DE3138"/>
<path d="M5.06152 9.1875C4.94999 9.1875 4.86112 9.2807 4.86644 9.39211L5.38206 20.2141C5.42972 21.2156 6.25237 22 7.25472 22H16.7461C17.7485 22 18.5711 21.2156 18.6188 20.2141L19.1344 9.39211C19.1397 9.2807 19.0509 9.1875 18.9393 9.1875H5.06152ZM14.5004 10.75C14.5004 10.4047 14.7801 10.125 15.1254 10.125C15.4707 10.125 15.7504 10.4047 15.7504 10.75V18.875C15.7504 19.2203 15.4707 19.5 15.1254 19.5C14.7801 19.5 14.5004 19.2203 14.5004 18.875V10.75ZM11.3754 10.75C11.3754 10.4047 11.6551 10.125 12.0004 10.125C12.3457 10.125 12.6254 10.4047 12.6254 10.75V18.875C12.6254 19.2203 12.3457 19.5 12.0004 19.5C11.6551 19.5 11.3754 19.2203 11.3754 18.875V10.75ZM8.25042 10.75C8.25042 10.4047 8.53011 10.125 8.87542 10.125C9.22073 10.125 9.50042 10.4047 9.50042 10.75V18.875C9.50042 19.2203 9.22073 19.5 8.87542 19.5C8.53011 19.5 8.25042 19.2203 8.25042 18.875V10.75Z" fill="#DE3138"/>
</svg>
