<svg width="30" height="30" viewBox="0 0 30 30" fill="none" xmlns="http://www.w3.org/2000/svg">
<g clip-path="url(#clip0_15558_3498)">
<path d="M4.37505 15C4.22186 14.4288 4.13792 13.8412 4.12505 13.25C4.12505 10.3658 5.27081 7.59967 7.31027 5.56021C9.34973 3.52076 12.1158 2.375 15.0001 2.375C17.8843 2.375 20.6504 3.52076 22.6898 5.56021C24.7293 7.59967 25.8751 10.3658 25.8751 13.25C25.8622 13.8412 25.7783 14.4288 25.6251 15H26.8751C26.9839 14.4234 27.0259 13.8362 27.0001 13.25C27.0001 10.0674 25.7358 7.01516 23.4853 4.76472C21.2349 2.51428 18.1827 1.25 15.0001 1.25C11.8175 1.25 8.76521 2.51428 6.51477 4.76472C4.26434 7.01516 3.00005 10.0674 3.00005 13.25C2.97425 13.8362 3.01619 14.4234 3.12505 15H4.37505Z" fill="#414347"/>
<path d="M27 15.625C27.0258 15.0388 26.9839 14.4516 26.875 13.875H25.625C25.7782 14.4462 25.8621 15.0338 25.875 15.625C25.8479 17.9195 25.0958 20.1466 23.7262 21.9877C22.3566 23.8287 20.4398 25.1894 18.25 25.875C18.0977 25.6112 17.8793 25.3918 17.6162 25.2383C17.3531 25.0849 17.0545 25.0027 16.75 25C16.2527 25 15.7758 25.1975 15.4242 25.5492C15.0725 25.9008 14.875 26.3777 14.875 26.875C14.875 27.3723 15.0725 27.8492 15.4242 28.2008C15.7758 28.5525 16.2527 28.75 16.75 28.75C17.2264 28.7511 17.6853 28.5708 18.0335 28.2457C18.3818 27.9207 18.5932 27.4753 18.625 27C21.0549 26.2505 23.1801 24.7409 24.6877 22.6932C26.1954 20.6454 27.0059 18.1679 27 15.625Z" fill="#414347"/>
<path d="M4.25 12.125H2.875C2.11561 12.125 1.5 12.7406 1.5 13.5V19C1.5 19.7594 2.11561 20.375 2.875 20.375H4.25C5.00939 20.375 5.625 19.7594 5.625 19V13.5C5.625 12.7406 5.00939 12.125 4.25 12.125Z" fill="#038757"/>
<path d="M27.125 12.125H25.75C24.9906 12.125 24.375 12.7406 24.375 13.5V19C24.375 19.7594 24.9906 20.375 25.75 20.375H27.125C27.8844 20.375 28.5 19.7594 28.5 19V13.5C28.5 12.7406 27.8844 12.125 27.125 12.125Z" fill="#038757"/>
</g>
<defs>
<clipPath id="clip0_15558_3498">
<rect width="30" height="30" fill="white"/>
</clipPath>
</defs>
</svg>
