<svg width="25" height="24" viewBox="0 0 25 24" fill="none" xmlns="http://www.w3.org/2000/svg">
<g clip-path="url(#clip0_16424_2261)">
<path d="M1.66663 8.8999H3.46663" stroke="#2C2C2C" stroke-miterlimit="10" stroke-linecap="round"/>
<path d="M1.66663 14.8999H3.46663" stroke="#2C2C2C" stroke-linecap="round" stroke-linejoin="round"/>
<path d="M3.66663 12H5.46663" stroke="#2C2C2C" stroke-linecap="round" stroke-linejoin="round"/>
<path d="M22.6666 12.0001H16.3666L16.0666 11.3001H8.8666C8.46815 11.2995 8.07996 11.1736 7.75695 10.9404C7.43393 10.7071 7.19243 10.3781 7.0666 10.0001L5.8666 5.70007C5.7952 5.32511 5.83259 4.93756 5.97435 4.58316C6.1161 4.22877 6.35631 3.92234 6.6666 3.70007C6.97285 3.4901 7.33151 3.36954 7.7024 3.35187C8.0733 3.33421 8.44179 3.42015 8.7666 3.60007L21.6666 10.4001C21.965 10.5481 22.2165 10.7761 22.393 11.0585C22.5696 11.341 22.6643 11.667 22.6666 12.0001Z" fill="#038757" stroke="#2C2C2C" stroke-linecap="round" stroke-linejoin="round"/>
<path d="M22.6667 12C22.6538 12.3307 22.5547 12.6523 22.3793 12.9329C22.2039 13.2135 21.9583 13.4435 21.6667 13.6L8.76667 20.4C8.45393 20.5606 8.10438 20.6359 7.75326 20.6183C7.40213 20.6008 7.06184 20.491 6.76667 20.3V20.3C6.41728 20.1123 6.13965 19.8146 5.9769 19.4529C5.81415 19.0912 5.7754 18.6859 5.86667 18.3L7.06667 14C7.1925 13.6219 7.434 13.293 7.75702 13.0597C8.08004 12.8264 8.46822 12.7006 8.86667 12.7H16.0667L16.3667 12H22.6667Z" stroke="#2C2C2C" stroke-linejoin="round"/>
</g>
<defs>
<clipPath id="clip0_16424_2261">
<rect width="24" height="24" fill="white" transform="translate(0.166626)"/>
</clipPath>
</defs>
</svg>
