<svg width="25" height="25" viewBox="0 0 25 25" fill="none" xmlns="http://www.w3.org/2000/svg">
<path fill-rule="evenodd" clip-rule="evenodd" d="M21.5584 8.12386L20.9359 7.04377C20.4094 6.12985 19.2424 5.81456 18.3272 6.33896V6.33896C17.8916 6.59559 17.3718 6.6684 16.8824 6.54133C16.393 6.41427 15.9743 6.09776 15.7185 5.66162C15.554 5.38439 15.4656 5.06864 15.4623 4.74628V4.74628C15.4771 4.22947 15.2821 3.72865 14.9217 3.35791C14.5613 2.98718 14.0662 2.77811 13.5492 2.77832H12.2952C11.7887 2.77831 11.303 2.98016 10.9457 3.33919C10.5884 3.69822 10.3889 4.18484 10.3913 4.69136V4.69136C10.3763 5.73717 9.52419 6.57706 8.47828 6.57695C8.15592 6.5736 7.84017 6.48519 7.56294 6.32065V6.32065C6.64777 5.79626 5.48082 6.11154 4.95425 7.02546L4.28606 8.12386C3.76012 9.03664 4.07111 10.2029 4.98171 10.7326V10.7326C5.57361 11.0743 5.93824 11.7058 5.93824 12.3893C5.93824 13.0728 5.57361 13.7043 4.98171 14.0461V14.0461C4.07227 14.5722 3.76094 15.7356 4.28606 16.6456V16.6456L4.91763 17.7348C5.16436 18.18 5.57831 18.5085 6.0679 18.6477C6.55749 18.7868 7.08235 18.7251 7.52633 18.4763V18.4763C7.96279 18.2216 8.4829 18.1518 8.97105 18.2824C9.4592 18.4131 9.87494 18.7333 10.1259 19.1719C10.2904 19.4491 10.3788 19.7649 10.3822 20.0872V20.0872C10.3822 21.1438 11.2387 22.0003 12.2952 22.0003H13.5492C14.6022 22.0003 15.4572 21.1494 15.4623 20.0964V20.0964C15.4598 19.5883 15.6606 19.1003 16.0199 18.741C16.3792 18.3817 16.8672 18.1809 17.3753 18.1834C17.6969 18.192 18.0113 18.28 18.2906 18.4396V18.4396C19.2034 18.9656 20.3696 18.6546 20.8993 17.744V17.744L21.5584 16.6456C21.8135 16.2077 21.8835 15.6863 21.7529 15.1966C21.6223 14.707 21.302 14.2896 20.8627 14.0369V14.0369C20.4235 13.7842 20.1031 13.3668 19.9725 12.8772C19.842 12.3875 19.912 11.8661 20.1671 11.4282C20.333 11.1386 20.5731 10.8984 20.8627 10.7326V10.7326C21.7679 10.2031 22.0781 9.04374 21.5584 8.13301V8.13301V8.12386Z" stroke="#038757" stroke-width="1.5" stroke-linecap="round" stroke-linejoin="round"/>
<path fill-rule="evenodd" clip-rule="evenodd" d="M12.9272 15.0252C14.3831 15.0252 15.5633 13.845 15.5633 12.3891C15.5633 10.9332 14.3831 9.75293 12.9272 9.75293C11.4713 9.75293 10.291 10.9332 10.291 12.3891C10.291 13.845 11.4713 15.0252 12.9272 15.0252Z" stroke="#038757" stroke-width="1.5" stroke-linecap="round" stroke-linejoin="round"/>
</svg>
