<svg width="24" height="24" viewBox="0 0 24 24" fill="none" xmlns="http://www.w3.org/2000/svg">
<g clip-path="url(#clip0_16424_1442)">
<path d="M21.1 17.7999V20.5999C21.1 21.1038 20.8998 21.5871 20.5435 21.9434C20.1872 22.2997 19.7039 22.4999 19.2 22.4999H3.4C2.89609 22.4999 2.41282 22.2997 2.0565 21.9434C1.70018 21.5871 1.5 21.1038 1.5 20.5999V7.3999" stroke="#2C2C2C" stroke-miterlimit="10"/>
<path d="M21.1 12.1999V9.2999C21.0758 8.80382 20.8678 8.33451 20.5166 7.9833C20.1654 7.6321 19.6961 7.42414 19.2 7.3999H3.40002" stroke="#2C2C2C" stroke-miterlimit="10"/>
<path d="M7.4 13.3C10.6585 13.3 13.3 10.6585 13.3 7.4C13.3 4.14152 10.6585 1.5 7.4 1.5C4.14152 1.5 1.5 4.14152 1.5 7.4C1.5 10.6585 4.14152 13.3 7.4 13.3Z" fill="#038757" stroke="#2C2C2C" stroke-miterlimit="10"/>
<path d="M17.7 12.1001H22.1C22.2061 12.1001 22.3078 12.1422 22.3829 12.2173C22.4579 12.2923 22.5 12.394 22.5 12.5001V17.5001C22.5 17.6062 22.4579 17.7079 22.3829 17.7829C22.3078 17.858 22.2061 17.9001 22.1 17.9001H17.7C17.3369 17.9003 16.9774 17.8273 16.6431 17.6854C16.3089 17.5435 16.0067 17.3357 15.7546 17.0743C15.5025 16.8129 15.3058 16.5033 15.1761 16.1641C15.0465 15.8249 14.9866 15.463 15 15.1001V14.8001C15 14.084 15.2845 13.3973 15.7908 12.8909C16.2972 12.3846 16.9839 12.1001 17.7 12.1001Z" stroke="#2C2C2C" stroke-miterlimit="10"/>
<path d="M17.2 15.8999C17.7522 15.8999 18.2 15.4522 18.2 14.8999C18.2 14.3476 17.7522 13.8999 17.2 13.8999C16.6477 13.8999 16.2 14.3476 16.2 14.8999C16.2 15.4522 16.6477 15.8999 17.2 15.8999Z" fill="#2C2C2C"/>
<path fill-rule="evenodd" clip-rule="evenodd" d="M7.29993 3.3999C7.41814 3.3999 7.52677 3.44092 7.61236 3.50951C7.62667 3.52097 7.64041 3.53326 7.65351 3.54635L9.85351 5.74635C10.0488 5.94161 10.0488 6.25819 9.85351 6.45346C9.65824 6.64872 9.34166 6.64872 9.1464 6.45346L7.79993 5.10698V10.4999C7.79993 10.776 7.57607 10.9999 7.29993 10.9999C7.02378 10.9999 6.79993 10.776 6.79993 10.4999V5.14788L5.56163 6.44514C5.37096 6.64489 5.05446 6.65225 4.85471 6.46158C4.65496 6.27091 4.6476 5.95441 4.83827 5.75466L6.93516 3.55793C7.02638 3.46066 7.15606 3.3999 7.29993 3.3999Z" fill="white"/>
</g>
<defs>
<clipPath id="clip0_16424_1442">
<rect width="24" height="24" fill="white"/>
</clipPath>
</defs>
</svg>
