<svg width="33" height="30" viewBox="0 0 33 30" fill="none" xmlns="http://www.w3.org/2000/svg">
<path fill-rule="evenodd" clip-rule="evenodd" d="M4.44488 9.4065C4.44488 5.58067 7.579 2.47922 11.4451 2.47922H23.7497C27.6158 2.47922 30.7499 5.58067 30.7499 9.4065V17.5813C30.7499 21.4071 27.6158 24.5086 23.7497 24.5086H18.5382C18.9801 23.6783 19.2994 22.7742 19.4721 21.8197H20.6928C23.9137 21.8197 25.8348 18.2674 24.0482 15.6154C23.3003 14.5052 22.0411 13.8383 20.6928 13.8383H17.1254C15.4012 11.9867 12.93 10.8267 10.185 10.8267C8.02533 10.8267 6.03511 11.5447 4.44488 12.7528V9.4065ZM18.5379 15.8176C19.1814 17.0262 19.5648 18.3915 19.6145 19.8405H20.6928C22.3162 19.8405 23.2846 18.05 22.384 16.7133C22.007 16.1537 21.3724 15.8176 20.6928 15.8176H18.5379ZM4.43846 15.4946H4.44488V15.4869C5.80853 13.8497 7.87361 12.8059 10.185 12.8059C14.2913 12.8059 17.62 16.0999 17.62 20.1633C17.62 24.2267 14.2913 27.5208 10.185 27.5208C6.07882 27.5208 2.75008 24.2267 2.75008 20.1633C2.75008 18.3909 3.38345 16.7648 4.43846 15.4946ZM2.4448 14.8229V9.4065C2.4448 4.48758 6.47439 0.5 11.4451 0.5H23.7497C28.7204 0.5 32.75 4.48758 32.75 9.4065V17.5813C32.75 22.5002 28.7204 26.4878 23.7497 26.4878H17.1258C15.4017 28.3398 12.9303 29.5 10.185 29.5C4.97421 29.5 0.75 25.3198 0.75 20.1633C0.75 18.1774 1.37659 16.3362 2.4448 14.8229ZM5.14143 20.1632C5.14143 19.6167 5.58916 19.1736 6.14146 19.1736H12.4882L10.1518 16.8616C9.7613 16.4751 9.7613 15.8486 10.1518 15.4621C10.5424 15.0756 11.1756 15.0756 11.5661 15.4621L15.6097 19.4635C15.7972 19.6491 15.9026 19.9008 15.9026 20.1633C15.9026 20.4257 15.7972 20.6775 15.6097 20.863L11.5661 24.8645C11.1756 25.2509 10.5424 25.2509 10.1518 24.8645C9.7613 24.478 9.7613 23.8514 10.1518 23.4649L12.4883 21.1528H6.14146C5.58916 21.1528 5.14143 20.7098 5.14143 20.1632ZM18.2722 10.181C19.4008 10.181 20.3157 9.27565 20.3157 8.15882C20.3157 7.04198 19.4008 6.13661 18.2722 6.13661C17.1436 6.13661 16.2287 7.04198 16.2287 8.15882C16.2287 9.27565 17.1436 10.181 18.2722 10.181ZM18.2722 12.1602C20.5054 12.1602 22.3158 10.3687 22.3158 8.15882C22.3158 5.94889 20.5054 4.15739 18.2722 4.15739C16.039 4.15739 14.2286 5.94889 14.2286 8.15882C14.2286 10.3687 16.039 12.1602 18.2722 12.1602Z" fill="#F29F05"/>
</svg>
