<svg width="32" height="30" viewBox="0 0 32 30" fill="none" xmlns="http://www.w3.org/2000/svg">
<path fill-rule="evenodd" clip-rule="evenodd" d="M3.69478 8.16675C3.69478 5.0371 6.23186 2.50002 9.36151 2.50002H24.3324C27.462 2.50002 29.9991 5.0371 29.9991 8.16675V8.50008H24.2174C21.456 8.50008 19.2174 10.7387 19.2174 13.5001C19.2174 16.2616 21.456 18.5002 24.2174 18.5002H29.9991V18.8335C29.9991 21.9632 27.462 24.5002 24.3324 24.5002H17.7935C18.4807 23.2054 18.8696 21.7313 18.8696 20.1674C18.8696 15.0127 14.6455 10.834 9.43478 10.834C7.27514 10.834 5.28497 11.5518 3.69478 12.7594V8.16675ZM1.69476 14.8288V8.16675C1.69476 3.93252 5.12728 0.5 9.36151 0.5H24.3324C28.5666 0.5 31.9991 3.93252 31.9991 8.16675V8.50008H32V9.50009V17.5002V18.5002H31.9991V18.8335C31.9991 23.0677 28.5666 26.5003 24.3324 26.5003H16.3655C14.6419 28.3454 12.1747 29.5008 9.43478 29.5008C4.22409 29.5008 0 25.3221 0 20.1674C0 18.1821 0.626573 16.3416 1.69476 14.8288ZM29.9991 16.5002H24.2174C22.5606 16.5002 21.2174 15.157 21.2174 13.5001C21.2174 11.8433 22.5606 10.5001 24.2174 10.5001H29.9991V16.5002ZM23.2609 13.5001C23.2609 12.9478 23.7086 12.5001 24.2609 12.5001H24.9346C25.4869 12.5001 25.9346 12.9478 25.9346 13.5001C25.9346 14.0524 25.4869 14.5001 24.9346 14.5001H24.2609C23.7086 14.5001 23.2609 14.0524 23.2609 13.5001ZM16.8695 20.1674C16.8695 24.1972 13.5613 27.5008 9.43478 27.5008C5.30826 27.5008 2.00002 24.1972 2.00002 20.1674C2.00002 16.1376 5.30826 12.834 9.43478 12.834C13.5613 12.834 16.8695 16.1376 16.8695 20.1674ZM9.33349 25.5C8.7812 25.5 8.33348 25.0523 8.33348 24.5L8.33347 18.1868L5.94982 20.5449C5.55719 20.9333 4.92402 20.9299 4.53561 20.5373C4.14719 20.1446 4.15061 19.5115 4.54325 19.1231L8.58672 15.123C8.97636 14.7376 9.60366 14.7376 9.99329 15.123L14.0368 19.1231C14.4294 19.5115 14.4328 20.1446 14.0444 20.5373C13.656 20.9299 13.0228 20.9333 12.6302 20.5449L10.3335 18.2729L10.3335 24.5C10.3335 25.0523 9.88578 25.5 9.33349 25.5Z" fill="#038757"/>
</svg>
