<svg width="20" height="20" viewBox="0 0 20 20" fill="none" xmlns="http://www.w3.org/2000/svg">
<g clip-path="url(#clip0_15644_3490)">
<path d="M19.6894 15.2852L12.0391 2.40629C11.6172 1.65625 10.8554 1.21094 9.99999 1.21094C9.14456 1.21094 8.3828 1.65625 7.96093 2.39453L0.300457 15.2969C-0.109738 16.0352 -0.0980196 16.9024 0.323934 17.6289C0.745809 18.3555 1.50745 18.7891 2.33952 18.7891H17.6621C18.4941 18.7891 19.2558 18.3555 19.6776 17.6289C20.0996 16.9023 20.1113 16.0352 19.6894 15.2852Z" fill="#FFD400"/>
<path d="M19.6776 17.6289C19.2557 18.3555 18.4941 18.7891 17.662 18.7891H10V1.21094C10.8554 1.21094 11.6172 1.65625 12.0391 2.40629L19.6894 15.2852C20.1113 16.0352 20.0996 16.9023 19.6776 17.6289Z" fill="#FDBF00"/>
<path d="M8.82812 13.5156H11.1719V15.8594H8.82812V13.5156ZM8.82812 6.48438H11.1719V12.3438H8.82812V6.48438Z" fill="#4A696F"/>
<path d="M10 6.48438H11.1719V12.3438H10V6.48438ZM10 13.5156H11.1719V15.8594H10V13.5156Z" fill="#3E5959"/>
</g>
<defs>
<clipPath id="clip0_15644_3490">
<rect width="20" height="20" fill="white"/>
</clipPath>
</defs>
</svg>
