<svg width="28" height="28" viewBox="0 0 28 28" fill="none" xmlns="http://www.w3.org/2000/svg">
<path d="M25.553 20.5335H20.653C19.8992 20.5341 19.1745 20.2429 18.6308 19.7209C18.087 19.1989 17.7665 18.4866 17.7363 17.7335V17.3835C17.7363 16.6099 18.0436 15.8681 18.5906 15.3211C19.1376 14.7741 19.8794 14.4668 20.653 14.4668H25.553C25.7318 14.4661 25.9088 14.5027 26.0726 14.5744C26.2365 14.646 26.3835 14.7511 26.5043 14.883C26.6252 15.0148 26.7171 15.1704 26.7743 15.3398C26.8314 15.5092 26.8526 15.6887 26.8363 15.8668V19.2501C26.8363 19.5905 26.7011 19.9169 26.4604 20.1576C26.2198 20.3983 25.8934 20.5335 25.553 20.5335ZM20.653 15.6335C20.1889 15.6335 19.7437 15.8178 19.4156 16.146C19.0874 16.4742 18.903 16.9193 18.903 17.3835V17.7335C18.9326 18.1771 19.13 18.5928 19.455 18.8962C19.7801 19.1995 20.2084 19.3678 20.653 19.3668H25.6697V15.6335H20.653Z" fill="#58595B"/>
<path d="M25.5505 14.4665V10.0332H24.3838V14.4665H25.5505Z" fill="#58595B"/>
<path d="M2.46973 10.2942L16.4125 2.4707H16.8071L21.4109 10.2942H2.46973Z" fill="#038C5A"/>
<path d="M24.9697 10.0332H1.98633V11.1999H24.9697V10.0332Z" fill="#58595B"/>
<path d="M21.697 10.9673L16.797 2.45064L2.09701 10.8506L1.51367 9.9173L16.2137 1.40064C16.4652 1.26207 16.7591 1.22116 17.0389 1.28574C17.3188 1.35032 17.5649 1.51585 17.7303 1.75064L22.8637 10.6173L21.697 10.9673Z" fill="#58595B"/>
<path d="M21.2332 7.81608H22.2832V9.68275L22.8665 10.6161H23.4499V6.64941H22.8665H22.2832H20.5332L21.2332 7.81608Z" fill="#58595B"/>
<path d="M25.5494 20.5339H24.3827V23.2172C24.3827 23.5576 24.2475 23.884 24.0069 24.1247C23.7662 24.3654 23.4398 24.5006 23.0994 24.5006H3.84941C3.50905 24.5006 3.18263 24.3654 2.94196 24.1247C2.70129 23.884 2.56608 23.5576 2.56608 23.2172V10.8506H1.39941V23.2172C1.39941 23.539 1.46279 23.8576 1.58591 24.1548C1.70903 24.4521 1.8895 24.7222 2.117 24.9497C2.34451 25.1772 2.61459 25.3576 2.91184 25.4808C3.20909 25.6039 3.52768 25.6673 3.84941 25.6673H23.0994C23.74 25.6387 24.3468 25.3715 24.8002 24.918C25.2536 24.4646 25.5209 23.8579 25.5494 23.2172V20.5339Z" fill="#58595B"/>
<path d="M2.56608 11.0827V9.09941C2.56608 8.75905 2.70129 8.43263 2.94196 8.19196C3.18263 7.95129 3.50905 7.81608 3.84941 7.81608H5.01608L6.99941 6.64941H3.84941C3.19963 6.64941 2.57647 6.90754 2.117 7.367C1.65754 7.82647 1.39941 8.44963 1.39941 9.09941V11.0827H2.56608Z" fill="#58595B"/>
</svg>
